<mxfile>
    <diagram id="zJOl87O2BwiRSLxjaxJK" name="Page-1">
        <mxGraphModel dx="1022" dy="1699" grid="1" gridSize="10" guides="1" tooltips="1" connect="1" arrows="1" fold="1" page="1" pageScale="1" pageWidth="827" pageHeight="1169" math="0" shadow="0">
            <root>
                <mxCell id="0"/>
                <mxCell id="1" parent="0"/>
                <mxCell id="NyS-6g9fIlrOh9EEt9hE-55" value="" style="rounded=0;whiteSpace=wrap;html=1;shadow=0;glass=0;sketch=0;align=center;verticalAlign=middle;fillColor=#303136;strokeColor=#F0F0F0;" parent="1" vertex="1">
                    <mxGeometry x="70" y="-10" width="720" height="650" as="geometry"/>
                </mxCell>
                <mxCell id="NyS-6g9fIlrOh9EEt9hE-1" value="" style="rounded=0;whiteSpace=wrap;html=1;horizontal=1;verticalAlign=top;strokeColor=#6c8ebf;glass=0;shadow=0;sketch=0;fillColor=#dae8fc;" parent="1" vertex="1">
                    <mxGeometry x="242.5" y="25" width="387.5" height="560" as="geometry"/>
                </mxCell>
                <mxCell id="NyS-6g9fIlrOh9EEt9hE-53" style="edgeStyle=orthogonalEdgeStyle;rounded=1;sketch=0;orthogonalLoop=1;jettySize=auto;html=1;exitX=0.5;exitY=1;exitDx=0;exitDy=0;shadow=0;startArrow=none;startFill=0;strokeColor=#000000;entryX=0.5;entryY=0;entryDx=0;entryDy=0;entryPerimeter=0;" parent="1" source="NyS-6g9fIlrOh9EEt9hE-8" target="NyS-6g9fIlrOh9EEt9hE-50" edge="1">
                    <mxGeometry relative="1" as="geometry"/>
                </mxCell>
                <mxCell id="NyS-6g9fIlrOh9EEt9hE-8" value="&lt;font color=&quot;#000000&quot;&gt;Business Operation:&lt;br&gt;LocalBDD&lt;/font&gt;" style="rounded=0;whiteSpace=wrap;html=1;verticalAlign=middle;fillColor=#f8cecc;strokeColor=#b85450;shadow=1;" parent="1" vertex="1">
                    <mxGeometry x="530" y="290" width="90" height="120" as="geometry"/>
                </mxCell>
                <mxCell id="NyS-6g9fIlrOh9EEt9hE-10" value="File Adapter" style="rounded=0;whiteSpace=wrap;html=1;verticalAlign=middle;horizontal=0;fillColor=#f5f5f5;strokeColor=#666666;fontColor=#333333;shadow=1;" parent="1" vertex="1">
                    <mxGeometry x="230" y="170" width="30" height="120" as="geometry"/>
                </mxCell>
                <mxCell id="NyS-6g9fIlrOh9EEt9hE-20" value="" style="endArrow=classic;startArrow=none;html=1;exitX=1;exitY=0.5;exitDx=0;exitDy=0;entryX=0;entryY=0.5;entryDx=0;entryDy=0;strokeColor=#FFFFFF;entryPerimeter=0;startFill=0;" parent="1" target="10" edge="1">
                    <mxGeometry width="50" height="50" relative="1" as="geometry">
                        <mxPoint x="650" y="220" as="sourcePoint"/>
                        <mxPoint x="720" y="220" as="targetPoint"/>
                    </mxGeometry>
                </mxCell>
                <mxCell id="NyS-6g9fIlrOh9EEt9hE-40" style="edgeStyle=orthogonalEdgeStyle;rounded=0;sketch=0;orthogonalLoop=1;jettySize=auto;html=1;exitX=0.5;exitY=1;exitDx=0;exitDy=0;entryX=-0.003;entryY=0.338;entryDx=0;entryDy=0;entryPerimeter=0;shadow=0;startArrow=none;startFill=0;strokeColor=#000000;" parent="1" source="NyS-6g9fIlrOh9EEt9hE-33" target="NyS-6g9fIlrOh9EEt9hE-8" edge="1">
                    <mxGeometry relative="1" as="geometry"/>
                </mxCell>
                <mxCell id="NyS-6g9fIlrOh9EEt9hE-34" value="&lt;font color=&quot;#000000&quot;&gt;Business Service:&lt;br&gt;Record Map File Service&lt;/font&gt;" style="rounded=0;html=1;verticalAlign=middle;fillColor=#f8cecc;strokeColor=#b85450;shadow=1;whiteSpace=wrap;" parent="1" vertex="1">
                    <mxGeometry x="260" y="170" width="80" height="120" as="geometry"/>
                </mxCell>
                <mxCell id="NyS-6g9fIlrOh9EEt9hE-35" value="CSV file" style="rounded=0;whiteSpace=wrap;html=1;verticalAlign=middle;horizontal=0;fillColor=#f5f5f5;strokeColor=#666666;fontColor=#333333;shadow=1;" parent="1" vertex="1">
                    <mxGeometry x="130" y="138.75" width="30" height="182.5" as="geometry"/>
                </mxCell>
                <mxCell id="NyS-6g9fIlrOh9EEt9hE-36" value="" style="endArrow=classic;startArrow=none;html=1;exitX=1;exitY=0.5;exitDx=0;exitDy=0;entryX=0;entryY=0.5;entryDx=0;entryDy=0;strokeColor=#FFFFFF;startFill=0;" parent="1" edge="1">
                    <mxGeometry width="50" height="50" relative="1" as="geometry">
                        <mxPoint x="160" y="230" as="sourcePoint"/>
                        <mxPoint x="230" y="230" as="targetPoint"/>
                    </mxGeometry>
                </mxCell>
                <mxCell id="NyS-6g9fIlrOh9EEt9hE-39" value="&lt;font color=&quot;#050505&quot;&gt;IRIS&lt;/font&gt;" style="rounded=1;whiteSpace=wrap;html=1;shadow=0;glass=0;sketch=0;align=center;verticalAlign=middle;gradientDirection=north;fillColor=#b1ddf0;strokeColor=#10739e;" parent="1" vertex="1">
                    <mxGeometry x="373.25" y="30" width="136" height="20" as="geometry"/>
                </mxCell>
                <mxCell id="16" style="edgeStyle=orthogonalEdgeStyle;rounded=0;orthogonalLoop=1;jettySize=auto;html=1;exitX=0.5;exitY=0;exitDx=0;exitDy=0;entryX=0.5;entryY=1;entryDx=0;entryDy=0;startArrow=none;startFill=0;strokeColor=#141414;" parent="1" source="NyS-6g9fIlrOh9EEt9hE-46" target="14" edge="1">
                    <mxGeometry relative="1" as="geometry"/>
                </mxCell>
                <mxCell id="NyS-6g9fIlrOh9EEt9hE-46" value="&lt;font color=&quot;#000000&quot;&gt;%CSP.REST&lt;/font&gt;" style="rounded=0;whiteSpace=wrap;html=1;verticalAlign=middle;fillColor=#f8cecc;strokeColor=#b85450;shadow=1;" parent="1" vertex="1">
                    <mxGeometry x="260" y="450" width="80" height="120" as="geometry"/>
                </mxCell>
                <mxCell id="NyS-6g9fIlrOh9EEt9hE-47" value="&lt;font color=&quot;#000000&quot;&gt;REST&lt;/font&gt;" style="ellipse;shape=cloud;whiteSpace=wrap;html=1;rounded=0;shadow=1;glass=0;sketch=0;gradientColor=none;align=center;verticalAlign=middle;fillColor=#EBEBEB;" parent="1" vertex="1">
                    <mxGeometry x="70" y="470" width="120" height="80" as="geometry"/>
                </mxCell>
                <mxCell id="NyS-6g9fIlrOh9EEt9hE-50" value="&lt;div&gt;&lt;font color=&quot;#000000&quot;&gt;IRIS&lt;/font&gt;&lt;/div&gt;" style="shape=cylinder3;whiteSpace=wrap;html=1;boundedLbl=1;backgroundOutline=1;size=15;rounded=0;shadow=1;glass=0;sketch=0;fillColor=#b1ddf0;align=center;verticalAlign=middle;strokeColor=#10739e;" parent="1" vertex="1">
                    <mxGeometry x="545" y="480" width="60" height="80" as="geometry"/>
                </mxCell>
                <mxCell id="3" value="" style="edgeStyle=orthogonalEdgeStyle;rounded=1;sketch=0;orthogonalLoop=1;jettySize=auto;html=1;shadow=0;startArrow=none;startFill=0;exitX=0.875;exitY=0.5;exitDx=0;exitDy=0;exitPerimeter=0;strokeColor=#FFFFFF;entryX=0;entryY=0.5;entryDx=0;entryDy=0;" parent="1" target="NyS-6g9fIlrOh9EEt9hE-46" edge="1">
                    <mxGeometry relative="1" as="geometry">
                        <mxPoint x="175" y="509.92" as="sourcePoint"/>
                        <mxPoint x="250" y="510" as="targetPoint"/>
                        <Array as="points">
                            <mxPoint x="213" y="510"/>
                        </Array>
                    </mxGeometry>
                </mxCell>
                <mxCell id="NyS-6g9fIlrOh9EEt9hE-33" value="&lt;font color=&quot;#000000&quot;&gt;Business Process:&lt;br&gt;BP.Main&lt;br&gt;&lt;/font&gt;" style="rounded=0;whiteSpace=wrap;html=1;verticalAlign=middle;fillColor=#f8cecc;strokeColor=#b85450;shadow=1;" parent="1" vertex="1">
                    <mxGeometry x="383.75" y="180" width="92.5" height="120" as="geometry"/>
                </mxCell>
                <mxCell id="7" style="edgeStyle=orthogonalEdgeStyle;rounded=0;sketch=0;orthogonalLoop=1;jettySize=auto;html=1;entryX=0.008;entryY=0.339;entryDx=0;entryDy=0;entryPerimeter=0;shadow=0;startArrow=none;startFill=0;strokeColor=#000000;" parent="1" target="NyS-6g9fIlrOh9EEt9hE-33" edge="1">
                    <mxGeometry relative="1" as="geometry">
                        <mxPoint x="340" y="221" as="sourcePoint"/>
                        <mxPoint x="490.72" y="200.67999999999995" as="targetPoint"/>
                        <Array as="points">
                            <mxPoint x="340" y="221"/>
                        </Array>
                    </mxGeometry>
                </mxCell>
                <mxCell id="8" value="&lt;font color=&quot;#000000&quot;&gt;Business Operation: RemoteBDD&lt;/font&gt;" style="rounded=0;whiteSpace=wrap;html=1;verticalAlign=middle;fillColor=#f8cecc;strokeColor=#b85450;shadow=1;" parent="1" vertex="1">
                    <mxGeometry x="530" y="160" width="90" height="120" as="geometry"/>
                </mxCell>
                <mxCell id="9" style="edgeStyle=orthogonalEdgeStyle;rounded=0;sketch=0;orthogonalLoop=1;jettySize=auto;html=1;shadow=0;startArrow=none;startFill=0;strokeColor=#000000;entryX=0.003;entryY=0.415;entryDx=0;entryDy=0;entryPerimeter=0;exitX=1.008;exitY=0.251;exitDx=0;exitDy=0;exitPerimeter=0;" parent="1" source="NyS-6g9fIlrOh9EEt9hE-33" target="8" edge="1">
                    <mxGeometry relative="1" as="geometry">
                        <mxPoint x="490" y="210" as="sourcePoint"/>
                        <mxPoint x="520" y="190" as="targetPoint"/>
                        <Array as="points">
                            <mxPoint x="480" y="210"/>
                        </Array>
                    </mxGeometry>
                </mxCell>
                <mxCell id="10" value="&lt;div&gt;&lt;font color=&quot;#000000&quot;&gt;PostGre&lt;/font&gt;&lt;/div&gt;" style="shape=cylinder3;whiteSpace=wrap;html=1;boundedLbl=1;backgroundOutline=1;size=15;rounded=0;shadow=1;glass=0;sketch=0;fillColor=#b1ddf0;align=center;verticalAlign=middle;strokeColor=#10739e;" parent="1" vertex="1">
                    <mxGeometry x="700" y="180" width="60" height="80" as="geometry"/>
                </mxCell>
                <mxCell id="13" style="edgeStyle=orthogonalEdgeStyle;rounded=0;orthogonalLoop=1;jettySize=auto;html=1;exitX=1;exitY=0.5;exitDx=0;exitDy=0;entryX=0.5;entryY=0;entryDx=0;entryDy=0;startArrow=none;startFill=0;strokeColor=#141414;" parent="1" source="11" target="8" edge="1">
                    <mxGeometry relative="1" as="geometry"/>
                </mxCell>
                <mxCell id="11" value="&lt;font color=&quot;#000000&quot;&gt;Business Service:&lt;br&gt;JavaGateway Service&lt;/font&gt;" style="rounded=0;html=1;verticalAlign=middle;fillColor=#f8cecc;strokeColor=#b85450;shadow=1;whiteSpace=wrap;" parent="1" vertex="1">
                    <mxGeometry x="260" y="40" width="80" height="120" as="geometry"/>
                </mxCell>
                <mxCell id="NyS-6g9fIlrOh9EEt9hE-11" value="SQL Outbound Adapter / JDBC" style="rounded=0;whiteSpace=wrap;html=1;verticalAlign=middle;horizontal=0;align=center;fillColor=#f5f5f5;strokeColor=#666666;fontColor=#333333;shadow=1;" parent="1" vertex="1">
                    <mxGeometry x="620" y="160" width="30" height="120" as="geometry"/>
                </mxCell>
                <mxCell id="15" style="edgeStyle=orthogonalEdgeStyle;rounded=0;orthogonalLoop=1;jettySize=auto;html=1;exitX=1;exitY=0.5;exitDx=0;exitDy=0;entryX=-0.002;entryY=0.582;entryDx=0;entryDy=0;entryPerimeter=0;startArrow=none;startFill=0;strokeColor=#141414;" parent="1" source="14" target="NyS-6g9fIlrOh9EEt9hE-8" edge="1">
                    <mxGeometry relative="1" as="geometry"/>
                </mxCell>
                <mxCell id="14" value="&lt;font color=&quot;#000000&quot;&gt;Business Service:&lt;br&gt;RestInput&lt;br&gt;&lt;/font&gt;" style="rounded=0;html=1;verticalAlign=middle;fillColor=#f8cecc;strokeColor=#b85450;shadow=1;whiteSpace=wrap;" parent="1" vertex="1">
                    <mxGeometry x="260" y="300" width="80" height="120" as="geometry"/>
                </mxCell>
            </root>
        </mxGraphModel>
    </diagram>
</mxfile>